<?xml version="1.0" standalone="no"?><!DOCTYPE svg PUBLIC "-//W3C//DTD SVG 1.1//EN" "http://www.w3.org/Graphics/SVG/1.1/DTD/svg11.dtd"><svg t="1573264126010" class="icon" viewBox="0 0 1024 1024" version="1.1" xmlns="http://www.w3.org/2000/svg" p-id="1118" width="32" height="32" xmlns:xlink="http://www.w3.org/1999/xlink"><defs><style type="text/css"></style></defs><path d="M999.18211 952.384504v-54.449386c0-55.489512-25.906394-108.890709-69.14822-142.602079-100.698709-78.323906-203.268031-132.974866-239.204788-151.197228v-62.189858a301.99937 301.99937 0 0 0 17.964347-53.401197c26.744945-9.627213 41.36315-48.998803 51.183874-83.758362 13.166866-46.281575 11.699402-78.743181-3.757354-96.755906 16.287244-88.991244 8.982173-154.535307-21.520126-194.955086-16.085669-21.149228-34.888567-30.155591-47.418457-34.130646-8.990236-12.562142-27.16422-33.71137-57.876158-50.675906C597.653165 9.433701 561.93411 0 522.651213 0c-7.095433 0-14.198929 0.419276-20.471937 0.838551-17.545071 0.838551-34.888567 4.192756-52.014363 9.836851-0.209638 0-0.419276 0.217701-0.628913 0.2177-18.802898 6.490709-37.18652 15.908283-54.941228 28.059213a289.816189 289.816189 0 0 0-54.949292 45.644598c-31.542425 32.461606-52.433638 69.107906-61.415811 108.269859-8.570961 32.453543-9.191811 65.124787-2.096378 97.159055-3.757354 2.725291-7.095433 5.869858-10.022299 9.635275-14.41663 19.05285-15.045543 48.998803-2.297953 94.441827 8.772535 31.413417 20.471937 63.455748 40.314961 77.90463 5.853732 30.155591 15.674457 57.58589 28.83326 81.871622v50.474331c-35.928693 18.214299-138.506079 72.655622-239.204788 151.181102C50.514646 789.26211 24.608252 842.453669 24.608252 898.152819v54.449386c0 39.363528 31.961701 71.19622 71.034961 71.19622h832.503937c39.07326 0 71.034961-32.042331 71.03496-71.405858z m-923.599622 0v-54.449386c0-39.782803 18.383622-77.896567 49.305197-101.980724 108.632693-84.387276 219.152126-140.094488 240.244913-150.350614 11.699402-5.652157 19.012535-17.383811 19.012536-30.574867v-68.051653a25.801575 25.801575 0 0 0-3.547717-12.98948c-13.787717-23.455244-23.398803-51.514457-28.204346-83.556788a25.825764 25.825764 0 0 0-19.012536-20.93959c-2.717228-3.144567-10.449638-14.448882-20.262299-49.418079-8.143622-28.897764-7.522772-42.298457-6.692283-47.120126 8.151685 0.419276 16.295307-3.346142 21.528189-9.836851 5.426394-6.909984 6.885795-16.125984 3.966992-24.293795-10.868913-30.365228-12.118677-61.560945-3.765417-93.393638 7.103496-30.574866 23.398803-59.053354 48.676283-85.024252 13.578079-14.65852 29.252535-27.430299 45.959055-38.1057 0.209638-0.209638 0.628913-0.419276 0.838551-0.628914a175.482961 175.482961 0 0 1 43.040252-22.197417c0.201575 0 0.411213-0.209638 0.411213-0.209638 12.328315-4.192756 25.075906-6.490709 38.444346-7.119622 36.557606-3.144567 69.357858 3.765417 98.392693 20.729953 31.760126 17.593449 44.709291 40.621354 44.709292 40.621354 3.966992 8.167811 11.070488 12.981417 20.262299 13.618394 0.628913 0 14.206992 2.096378 25.906393 18.633575 12.328315 17.593449 29.873386 62.826835 7.942048 168.363338a25.632252 25.632252 0 0 0 14.206992 28.478488c1.048189 3.77348 2.717228 16.54526-6.273008 48.377953-7.933984 28.059213-14.408567 40.830992-18.173984 46.48315a24.455055 24.455055 0 0 0-14.408567 1.677102 25.76126 25.76126 0 0 0-15.255181 19.052851c-4.386268 25.132346-11.489764 47.749039-20.681575 67.011527-1.669039 3.563843-2.507591 7.337323-2.507591 11.10274v78.735118c0 13.191055 7.313134 24.713071 19.012536 30.574867 21.10085 10.256126 131.61222 66.172976 240.035275 150.350614 30.921575 24.084157 49.305197 62.197921 49.305197 101.980724v54.449386a19.99622 19.99622 0 0 1-19.843023 19.891402H95.627087c-11.070488 0.209638-20.052661-8.788661-20.052662-19.891402z" fill="#13227a" p-id="1119"></path></svg>